# xmcd
#
# Track frame offsets: 
#        150
#        12336
#        24571
#        39656
#        52760
#        63233
#        79676
#        91654
#        104874
#        118451
#        129148
#        142719
#        155996
#        171904
#        186362
#        202254
#        221681
#        239182
#        256804
#        275312
#        289102
#        303895
#        321703
#        333624
#        342201
#
# Disc length: 4769 seconds
#
# Revision: 2
# Processed by: cddbd v1.5.2PL0 Copyright (c) Steve Scherf et al.
# Submitted via: ExactAudioCopyFreeDBPlugin 1.0
#
DISCID=7f129f19
DTITLE=Billy Joe Shaver - Honky Tonk Heroes
DYEAR=1994
DGENRE=Country
TTITLE0=Texas Uphere Tennessee
TTITLE1=The Good Lord Knows I Tried
TTITLE2=Ride Me Down Easy
TTITLE3=When I Get My Wings
TTITLE4=Ain't No God in Mexico
TTITLE5=Love You Till the Cows Come Home
TTITLE6=Woman is the Wonder of the World
TTITLE7=When the Word Was Thunderbird
TTITLE8=America You Are My Woman
TTITLE9=A Restless Wind
TTITLE10=Evergreen
TTITLE11=Billy B. Damned
TTITLE12=We Stayed Too Long at the Fair
TTITLE13=Honky Tonk Heroes
TTITLE14=I'm Going Crazy in 3,4 Time
TTITLE15=Gypsy Boy
TTITLE16=Chicken on the Ground
TTITLE17=Everything, Everywhere's
TTITLE18=Slow Rollin' Low
TTITLE19=Silver Wings of Time
TTITLE20=The Believer
TTITLE21=You Ask Me To
TTITLE22=Lately I've Been Leaning Towards the Blues
TTITLE23=I Couldn't Be Me Without You
TTITLE24=Music City U.S.A.
EXTD=
EXTT0=
EXTT1=
EXTT2=
EXTT3=
EXTT4=
EXTT5=
EXTT6=
EXTT7=
EXTT8=
EXTT9=
EXTT10=
EXTT11=
EXTT12=
EXTT13=
EXTT14=
EXTT15=
EXTT16=
EXTT17=
EXTT18=
EXTT19=
EXTT20=
EXTT21=
EXTT22=
EXTT23=
EXTT24=
PLAYORDER=
